<svg 
 xmlns="http://www.w3.org/2000/svg"
 xmlns:xlink="http://www.w3.org/1999/xlink"
 width="39px" height="38px">
<path fill-rule="evenodd"  fill="rgb(227, 160, 98)"
 d="M38.853,7.686 L38.138,9.333 C38.085,9.454 37.944,9.510 37.823,9.458 L23.454,3.216 C23.054,2.985 22.633,2.788 22.193,2.626 C22.172,2.569 22.173,2.507 22.197,2.451 L22.912,0.805 C22.952,0.714 23.041,0.661 23.133,0.661 C23.165,0.661 23.198,0.666 23.229,0.680 L24.474,1.218 C24.494,1.230 24.510,1.248 24.532,1.257 L37.401,6.813 C37.423,6.822 37.446,6.821 37.468,6.827 L38.728,7.370 C38.850,7.423 38.906,7.565 38.853,7.686 ZM37.576,6.493 C37.564,6.492 37.552,6.497 37.541,6.492 L24.671,0.936 L24.671,0.936 C24.660,0.931 24.655,0.918 24.646,0.911 C24.633,0.899 24.617,0.891 24.611,0.874 C24.600,0.845 24.600,0.815 24.612,0.787 L24.925,0.066 C24.937,0.039 24.959,0.018 24.988,0.007 C25.001,0.001 25.015,-0.001 25.029,-0.001 C25.044,-0.001 25.060,0.002 25.074,0.008 L37.943,5.564 C38.001,5.588 38.028,5.656 38.003,5.713 L37.690,6.433 C37.670,6.478 37.623,6.496 37.576,6.493 ZM23.522,3.666 C24.235,4.114 24.871,4.672 25.400,5.323 C25.547,5.504 25.687,5.691 25.818,5.884 C26.007,6.166 26.172,6.465 26.323,6.771 C26.401,6.928 26.477,7.085 26.543,7.247 C26.648,7.502 26.737,7.765 26.814,8.032 C26.855,8.174 26.892,8.317 26.925,8.461 C26.978,8.698 27.019,8.939 27.050,9.183 C27.066,9.316 27.078,9.447 27.088,9.581 C27.101,9.766 27.116,9.950 27.116,10.138 C27.116,10.179 27.111,10.218 27.110,10.259 C27.108,10.384 27.099,10.508 27.091,10.632 C27.085,10.722 27.086,10.813 27.077,10.902 C27.065,11.027 27.041,11.148 27.022,11.271 C27.005,11.389 26.991,11.511 26.968,11.628 C26.954,11.694 26.937,11.759 26.922,11.824 C26.891,11.961 26.855,12.097 26.817,12.231 C26.785,12.345 26.750,12.457 26.713,12.568 C26.709,12.581 26.703,12.594 26.699,12.607 C26.657,12.728 26.614,12.849 26.566,12.966 C26.543,13.025 26.523,13.086 26.498,13.143 C26.452,13.251 26.397,13.353 26.346,13.458 C26.267,13.622 26.184,13.782 26.094,13.939 C26.081,13.960 26.068,13.981 26.055,14.002 C25.996,14.103 25.936,14.204 25.871,14.303 C25.782,14.440 25.687,14.570 25.589,14.700 C25.561,14.738 25.534,14.776 25.505,14.814 C25.430,14.909 25.356,15.005 25.278,15.097 C25.137,15.261 24.991,15.422 24.837,15.575 C24.746,15.665 24.648,15.747 24.552,15.833 C24.380,15.986 24.202,16.132 24.016,16.270 C23.908,16.351 23.801,16.434 23.688,16.510 C23.472,16.654 23.248,16.785 23.017,16.907 C22.881,16.979 22.740,17.045 22.598,17.108 C22.322,17.233 22.040,17.347 21.747,17.440 C21.566,17.497 21.381,17.542 21.196,17.585 C21.016,17.628 20.834,17.662 20.650,17.691 C20.590,17.701 20.530,17.710 20.470,17.719 C20.410,17.727 20.351,17.739 20.291,17.746 C20.009,17.777 19.723,17.796 19.433,17.796 C19.153,17.796 18.866,17.775 18.575,17.738 C18.515,17.730 18.455,17.720 18.395,17.710 C18.336,17.701 18.276,17.694 18.216,17.683 C18.045,17.652 17.874,17.614 17.701,17.572 C17.522,17.528 17.341,17.478 17.160,17.422 C16.864,17.332 16.568,17.226 16.272,17.106 C16.124,17.046 15.976,16.983 15.828,16.916 C15.578,16.803 15.331,16.679 15.086,16.549 C14.956,16.480 14.828,16.409 14.700,16.335 C14.483,16.209 14.270,16.079 14.060,15.942 C13.944,15.867 13.828,15.790 13.715,15.710 C13.695,15.697 13.676,15.683 13.656,15.669 C13.560,15.601 13.464,15.534 13.370,15.463 C13.293,15.406 13.217,15.348 13.141,15.290 C13.120,15.272 13.097,15.256 13.075,15.239 C12.993,15.174 12.912,15.109 12.832,15.042 C12.655,14.896 12.481,14.748 12.315,14.597 C12.221,14.511 12.128,14.423 12.037,14.336 C11.878,14.181 11.727,14.024 11.580,13.864 C11.496,13.774 11.415,13.682 11.335,13.589 C11.293,13.540 11.252,13.491 11.211,13.442 C11.126,13.339 11.044,13.235 10.966,13.131 C10.956,13.118 10.946,13.106 10.936,13.093 C10.863,12.996 10.795,12.899 10.728,12.802 C10.608,12.627 10.498,12.451 10.398,12.275 C10.340,12.172 10.284,12.070 10.233,11.965 C10.139,11.778 10.055,11.590 9.987,11.403 C9.947,11.292 9.911,11.180 9.880,11.069 C9.822,10.861 9.782,10.655 9.761,10.452 C9.751,10.346 9.745,10.241 9.745,10.138 C9.745,10.118 9.748,10.096 9.749,10.076 C9.752,9.990 9.761,9.902 9.775,9.809 C9.787,9.735 9.801,9.659 9.821,9.581 C9.839,9.505 9.860,9.428 9.886,9.349 C9.886,9.347 9.887,9.345 9.888,9.343 C9.936,9.196 9.997,9.044 10.068,8.889 C10.196,8.606 10.361,8.311 10.558,8.009 C10.675,7.828 10.804,7.645 10.943,7.462 C11.210,7.108 11.515,6.753 11.851,6.401 C12.071,6.171 12.303,5.943 12.547,5.720 C13.457,4.887 14.520,4.119 15.637,3.539 C15.958,3.372 16.284,3.223 16.611,3.090 C16.664,3.069 16.717,3.049 16.770,3.028 C16.773,3.027 16.777,3.026 16.781,3.024 C16.837,3.002 16.893,2.980 16.950,2.959 C17.784,2.656 18.625,2.480 19.433,2.480 C20.305,2.480 21.141,2.632 21.923,2.900 C21.937,2.906 21.952,2.911 21.966,2.916 C22.009,2.931 22.051,2.947 22.093,2.962 C22.512,3.117 22.914,3.306 23.295,3.528 C23.372,3.573 23.447,3.619 23.522,3.666 ZM11.589,9.663 C11.510,9.619 11.421,9.591 11.324,9.591 C11.308,9.591 11.293,9.595 11.277,9.596 C11.211,9.602 11.148,9.618 11.090,9.645 C11.030,9.674 10.975,9.713 10.929,9.761 C10.864,9.828 10.817,9.912 10.794,10.006 C10.783,10.049 10.776,10.092 10.776,10.138 C10.776,10.321 10.868,10.483 11.007,10.583 C11.088,10.640 11.185,10.675 11.290,10.681 C11.301,10.682 11.312,10.684 11.324,10.684 C11.381,10.684 11.435,10.673 11.487,10.658 C11.550,10.637 11.607,10.608 11.658,10.569 C11.769,10.483 11.845,10.357 11.865,10.212 C11.868,10.187 11.872,10.163 11.872,10.138 C11.872,9.932 11.757,9.756 11.589,9.663 ZM21.984,3.947 C21.929,3.923 21.872,3.906 21.816,3.884 C21.816,3.884 21.815,3.884 21.815,3.884 C21.073,3.603 20.273,3.442 19.433,3.442 C18.594,3.442 17.793,3.603 17.052,3.884 C17.051,3.884 17.050,3.884 17.050,3.884 C16.994,3.906 16.937,3.923 16.882,3.947 C16.825,3.970 16.770,3.995 16.713,4.021 C16.154,4.269 15.632,4.586 15.165,4.971 C14.759,5.304 14.399,5.690 14.081,6.107 C13.949,6.281 13.826,6.461 13.711,6.648 C13.540,6.925 13.383,7.212 13.254,7.514 C13.190,7.661 13.137,7.815 13.084,7.968 C12.999,8.216 12.924,8.469 12.868,8.730 C12.838,8.865 12.819,9.003 12.798,9.141 C12.764,9.370 12.741,9.603 12.731,9.839 C12.726,9.939 12.715,10.037 12.715,10.138 C12.715,10.167 12.719,10.195 12.720,10.224 C12.723,10.444 12.735,10.662 12.758,10.876 C12.772,10.996 12.793,11.114 12.813,11.233 C12.848,11.441 12.892,11.644 12.945,11.845 C12.975,11.959 13.003,12.074 13.039,12.186 C13.102,12.381 13.173,12.574 13.253,12.761 C13.299,12.869 13.354,12.972 13.406,13.076 C13.497,13.262 13.596,13.441 13.704,13.617 C13.765,13.717 13.825,13.819 13.892,13.916 C14.011,14.090 14.138,14.258 14.274,14.420 C14.353,14.514 14.439,14.603 14.523,14.693 C14.674,14.855 14.833,15.009 14.999,15.156 C15.098,15.242 15.198,15.326 15.301,15.406 C15.491,15.555 15.689,15.691 15.894,15.819 C16.016,15.896 16.138,15.972 16.265,16.041 C16.517,16.174 16.781,16.289 17.050,16.391 C17.213,16.453 17.376,16.511 17.544,16.561 C17.730,16.615 17.917,16.664 18.108,16.702 C18.167,16.714 18.228,16.719 18.288,16.730 C18.347,16.740 18.407,16.749 18.467,16.757 C18.783,16.803 19.104,16.835 19.433,16.835 C19.762,16.835 20.083,16.803 20.399,16.757 C20.459,16.749 20.519,16.740 20.579,16.730 C20.638,16.719 20.699,16.714 20.758,16.702 C20.950,16.664 21.137,16.615 21.322,16.561 C21.490,16.511 21.654,16.453 21.816,16.391 C22.086,16.289 22.350,16.174 22.601,16.041 C22.729,15.972 22.850,15.896 22.972,15.819 C23.177,15.691 23.376,15.555 23.565,15.406 C23.669,15.326 23.768,15.242 23.867,15.156 C24.033,15.009 24.192,14.855 24.343,14.693 C24.427,14.603 24.513,14.514 24.593,14.420 C24.728,14.258 24.855,14.090 24.974,13.916 C25.041,13.819 25.101,13.717 25.162,13.617 C25.270,13.441 25.369,13.262 25.460,13.076 C25.512,12.972 25.567,12.869 25.613,12.761 C25.693,12.574 25.764,12.381 25.827,12.185 C25.863,12.074 25.891,11.959 25.921,11.845 C25.974,11.644 26.018,11.441 26.053,11.233 C26.073,11.114 26.094,10.996 26.108,10.876 C26.131,10.662 26.143,10.444 26.146,10.224 C26.147,10.195 26.151,10.167 26.151,10.138 C26.151,10.037 26.140,9.939 26.135,9.839 C26.125,9.603 26.102,9.370 26.068,9.141 C26.047,9.003 26.028,8.865 25.998,8.730 C25.942,8.469 25.867,8.216 25.782,7.967 C25.729,7.815 25.676,7.661 25.612,7.514 C25.483,7.211 25.326,6.924 25.155,6.648 C25.040,6.461 24.917,6.281 24.785,6.107 C24.467,5.689 24.107,5.304 23.701,4.971 C23.234,4.586 22.712,4.269 22.153,4.021 C22.097,3.995 22.041,3.970 21.984,3.947 ZM24.560,6.391 C24.772,6.677 24.959,6.981 25.120,7.302 C25.199,7.456 25.272,7.613 25.338,7.776 C25.439,8.028 25.522,8.288 25.591,8.554 C25.627,8.694 25.662,8.834 25.688,8.977 C25.731,9.208 25.760,9.444 25.777,9.683 C25.786,9.813 25.795,9.942 25.797,10.073 C25.797,10.095 25.800,10.116 25.800,10.138 C25.800,10.338 25.788,10.535 25.770,10.730 C25.759,10.852 25.738,10.970 25.720,11.090 C25.689,11.298 25.647,11.503 25.596,11.704 C25.566,11.818 25.540,11.934 25.505,12.046 C25.443,12.242 25.371,12.435 25.291,12.622 C25.245,12.730 25.190,12.833 25.138,12.937 C25.047,13.123 24.947,13.302 24.838,13.476 C24.775,13.577 24.712,13.676 24.644,13.774 C24.522,13.947 24.391,14.113 24.253,14.273 C24.172,14.367 24.090,14.458 24.004,14.547 C23.848,14.707 23.686,14.860 23.514,15.004 C23.411,15.089 23.303,15.168 23.195,15.247 C22.997,15.392 22.793,15.527 22.578,15.650 C22.448,15.723 22.313,15.792 22.177,15.856 C21.909,15.985 21.634,16.100 21.348,16.191 C21.168,16.247 20.985,16.294 20.799,16.334 C20.798,16.334 20.797,16.335 20.796,16.335 C20.737,16.347 20.678,16.359 20.618,16.371 C20.559,16.382 20.498,16.388 20.439,16.398 C20.110,16.450 19.776,16.485 19.433,16.485 C19.090,16.485 18.756,16.450 18.428,16.398 C18.368,16.388 18.307,16.382 18.248,16.371 C18.188,16.359 18.129,16.348 18.070,16.335 C18.069,16.335 18.068,16.334 18.068,16.334 C17.882,16.294 17.698,16.247 17.518,16.191 C17.232,16.100 16.957,15.985 16.690,15.856 C16.553,15.792 16.419,15.723 16.288,15.650 C16.074,15.527 15.869,15.392 15.671,15.247 C15.563,15.168 15.455,15.089 15.352,15.004 C15.181,14.860 15.018,14.707 14.863,14.547 C14.777,14.458 14.694,14.367 14.613,14.273 C14.475,14.113 14.344,13.947 14.222,13.774 C14.154,13.676 14.091,13.577 14.028,13.476 C13.919,13.302 13.819,13.123 13.728,12.937 C13.676,12.833 13.621,12.730 13.575,12.622 C13.495,12.435 13.423,12.242 13.361,12.046 C13.326,11.934 13.300,11.818 13.270,11.704 C13.219,11.503 13.177,11.298 13.146,11.090 C13.128,10.970 13.108,10.852 13.096,10.730 C13.078,10.535 13.066,10.338 13.066,10.138 C13.066,10.116 13.069,10.095 13.069,10.073 C13.071,9.942 13.080,9.813 13.089,9.683 C13.106,9.444 13.135,9.208 13.178,8.977 C13.204,8.834 13.239,8.694 13.275,8.554 C13.344,8.288 13.427,8.028 13.528,7.776 C13.594,7.614 13.667,7.456 13.746,7.302 C13.907,6.981 14.094,6.677 14.306,6.391 C14.459,6.183 14.625,5.984 14.802,5.796 C15.354,5.211 16.015,4.732 16.754,4.388 C16.810,4.362 16.865,4.332 16.922,4.308 C16.977,4.284 17.035,4.264 17.091,4.242 C17.817,3.954 18.606,3.791 19.433,3.791 C20.261,3.791 21.049,3.954 21.775,4.242 C21.832,4.264 21.889,4.284 21.945,4.308 C22.002,4.332 22.056,4.362 22.112,4.388 C22.851,4.732 23.512,5.211 24.064,5.796 C24.241,5.984 24.407,6.182 24.560,6.391 ZM23.959,9.949 C23.949,9.709 23.925,9.474 23.879,9.245 C23.850,9.100 23.813,8.957 23.770,8.817 C23.683,8.532 23.568,8.259 23.429,8.001 C23.329,7.817 23.214,7.642 23.090,7.475 C22.764,7.031 22.360,6.648 21.897,6.347 C21.843,6.312 21.787,6.280 21.731,6.247 C21.676,6.214 21.622,6.180 21.566,6.150 C20.929,5.810 20.204,5.617 19.433,5.617 C18.662,5.617 17.937,5.810 17.301,6.150 C17.244,6.180 17.190,6.214 17.135,6.247 C17.079,6.280 17.023,6.312 16.969,6.347 C16.506,6.648 16.103,7.031 15.776,7.475 C15.653,7.642 15.537,7.817 15.437,8.001 C15.298,8.259 15.183,8.532 15.096,8.817 C15.053,8.957 15.016,9.100 14.987,9.245 C14.941,9.474 14.917,9.709 14.907,9.949 C14.904,10.012 14.897,10.074 14.897,10.138 C14.897,10.203 14.904,10.265 14.907,10.330 C14.916,10.546 14.938,10.759 14.977,10.967 C14.999,11.085 15.027,11.200 15.058,11.314 C15.112,11.514 15.175,11.709 15.255,11.897 C15.301,12.005 15.354,12.109 15.407,12.212 C15.503,12.396 15.611,12.573 15.731,12.741 C15.800,12.839 15.872,12.936 15.949,13.028 C16.090,13.197 16.245,13.352 16.409,13.498 C16.507,13.586 16.608,13.669 16.713,13.747 C17.058,14.007 17.440,14.217 17.852,14.371 C17.913,14.393 17.973,14.417 18.035,14.438 C18.095,14.457 18.157,14.473 18.218,14.490 C18.605,14.598 19.012,14.660 19.433,14.660 C19.855,14.660 20.261,14.598 20.649,14.489 C20.710,14.473 20.771,14.457 20.831,14.438 C20.893,14.417 20.953,14.393 21.015,14.371 C21.426,14.217 21.808,14.007 22.153,13.747 C22.258,13.669 22.360,13.586 22.458,13.498 C22.621,13.352 22.777,13.197 22.918,13.028 C22.995,12.936 23.066,12.839 23.135,12.741 C23.255,12.573 23.363,12.396 23.459,12.212 C23.513,12.109 23.566,12.005 23.611,11.897 C23.691,11.709 23.754,11.514 23.808,11.314 C23.839,11.200 23.867,11.085 23.889,10.967 C23.928,10.759 23.950,10.546 23.959,10.330 C23.962,10.265 23.969,10.203 23.969,10.138 C23.969,10.074 23.962,10.012 23.959,9.949 ZM23.556,10.824 C23.537,10.942 23.512,11.058 23.482,11.173 C23.431,11.373 23.369,11.570 23.289,11.759 C23.244,11.866 23.191,11.971 23.137,12.074 C23.040,12.258 22.928,12.432 22.805,12.599 C22.733,12.696 22.658,12.790 22.578,12.882 C22.432,13.048 22.275,13.204 22.105,13.346 C22.002,13.431 21.894,13.512 21.783,13.588 C21.556,13.742 21.313,13.875 21.057,13.983 C20.997,14.008 20.935,14.028 20.873,14.050 C20.812,14.073 20.752,14.098 20.690,14.117 C20.293,14.242 19.871,14.310 19.433,14.310 C18.996,14.310 18.574,14.242 18.177,14.117 C18.114,14.098 18.054,14.073 17.993,14.050 C17.932,14.028 17.869,14.008 17.809,13.983 C17.553,13.875 17.310,13.742 17.083,13.588 C16.972,13.512 16.865,13.431 16.762,13.346 C16.591,13.204 16.434,13.048 16.288,12.882 C16.209,12.790 16.133,12.696 16.061,12.599 C15.939,12.432 15.826,12.258 15.729,12.074 C15.675,11.971 15.623,11.866 15.577,11.759 C15.497,11.570 15.436,11.373 15.384,11.173 C15.354,11.058 15.330,10.942 15.310,10.824 C15.275,10.614 15.253,10.400 15.250,10.181 C15.250,10.166 15.248,10.153 15.248,10.138 C15.248,10.022 15.256,9.907 15.266,9.794 C15.286,9.546 15.330,9.304 15.392,9.070 C15.433,8.919 15.480,8.771 15.537,8.627 C15.658,8.318 15.813,8.027 16.001,7.759 C16.152,7.542 16.323,7.341 16.511,7.157 C16.667,7.006 16.835,6.867 17.013,6.741 C17.067,6.702 17.121,6.666 17.177,6.630 C17.231,6.595 17.287,6.562 17.342,6.530 C17.958,6.174 18.671,5.966 19.433,5.966 C20.195,5.966 20.908,6.174 21.524,6.530 C21.580,6.562 21.635,6.595 21.689,6.630 C21.745,6.666 21.800,6.702 21.854,6.741 C22.031,6.867 22.199,7.006 22.355,7.157 C22.544,7.341 22.714,7.542 22.866,7.759 C23.053,8.027 23.209,8.318 23.330,8.627 C23.386,8.771 23.434,8.919 23.474,9.070 C23.536,9.304 23.580,9.546 23.600,9.794 C23.610,9.907 23.618,10.022 23.618,10.138 C23.618,10.153 23.616,10.166 23.616,10.181 C23.614,10.400 23.591,10.614 23.556,10.824 ZM19.433,13.391 C19.735,13.391 19.981,13.146 19.981,12.844 C19.981,12.543 19.735,12.298 19.433,12.298 C19.131,12.298 18.885,12.543 18.885,12.844 C18.885,13.146 19.131,13.391 19.433,13.391 ZM19.433,6.751 C19.131,6.751 18.885,6.996 18.885,7.297 C18.885,7.599 19.131,7.844 19.433,7.844 C19.735,7.844 19.981,7.599 19.981,7.297 C19.981,6.996 19.735,6.751 19.433,6.751 ZM19.433,8.590 C18.577,8.590 17.880,9.284 17.880,10.138 C17.880,10.992 18.577,11.686 19.433,11.686 C20.289,11.686 20.986,10.992 20.986,10.138 C20.986,9.284 20.289,8.590 19.433,8.590 ZM19.433,11.336 C18.770,11.336 18.231,10.799 18.231,10.138 C18.231,9.477 18.770,8.940 19.433,8.940 C20.096,8.940 20.635,9.477 20.635,10.138 C20.635,10.799 20.096,11.336 19.433,11.336 ZM19.433,7.494 C19.324,7.494 19.236,7.406 19.236,7.297 C19.236,7.189 19.324,7.100 19.433,7.100 C19.542,7.100 19.631,7.189 19.631,7.297 C19.631,7.406 19.542,7.494 19.433,7.494 ZM19.433,12.647 C19.542,12.647 19.631,12.736 19.631,12.844 C19.631,12.953 19.542,13.041 19.433,13.041 C19.324,13.041 19.236,12.953 19.236,12.844 C19.236,12.736 19.324,12.647 19.433,12.647 ZM11.358,10.329 C11.347,10.330 11.336,10.335 11.324,10.335 C11.215,10.335 11.127,10.246 11.127,10.138 C11.127,10.068 11.165,10.011 11.220,9.975 C11.250,9.956 11.285,9.941 11.324,9.941 C11.362,9.941 11.395,9.954 11.425,9.973 C11.482,10.007 11.521,10.067 11.521,10.138 C11.521,10.157 11.516,10.174 11.510,10.192 C11.490,10.263 11.432,10.315 11.358,10.329 ZM1.043,9.458 C0.923,9.510 0.781,9.453 0.728,9.333 L0.013,7.686 C-0.040,7.565 0.017,7.423 0.138,7.370 L1.399,6.827 C1.421,6.820 1.444,6.822 1.465,6.813 L14.334,1.257 C14.356,1.248 14.372,1.230 14.392,1.218 L15.637,0.680 C15.668,0.667 15.701,0.661 15.733,0.661 C15.763,0.661 15.793,0.666 15.822,0.677 C15.881,0.701 15.928,0.746 15.954,0.805 L16.669,2.451 C16.703,2.530 16.688,2.616 16.642,2.681 L1.043,9.458 ZM14.195,0.936 L1.326,6.492 C1.314,6.497 1.302,6.491 1.290,6.493 C1.243,6.496 1.196,6.478 1.176,6.433 L0.864,5.713 C0.839,5.656 0.865,5.588 0.923,5.564 L13.792,0.008 C13.807,0.002 13.822,-0.001 13.837,-0.001 C13.851,-0.001 13.865,0.001 13.879,0.007 C13.907,0.018 13.929,0.039 13.941,0.066 L14.254,0.787 C14.266,0.815 14.267,0.845 14.255,0.874 C14.249,0.891 14.232,0.900 14.219,0.912 C14.210,0.919 14.206,0.931 14.195,0.936 ZM13.511,4.457 C12.807,4.974 12.156,5.544 11.586,6.135 L1.602,10.445 C1.468,10.115 1.378,9.862 1.330,9.715 L1.330,9.715 L13.629,4.371 C13.589,4.400 13.550,4.428 13.511,4.457 ZM10.279,7.748 L1.990,11.327 C1.896,11.127 1.810,10.939 1.736,10.768 L11.021,6.760 C10.743,7.089 10.494,7.420 10.279,7.748 ZM9.595,9.093 L2.426,12.187 C2.324,11.999 2.230,11.816 2.143,11.641 L9.967,8.264 C9.813,8.546 9.689,8.823 9.595,9.093 ZM7.544,10.365 C7.430,10.414 7.340,10.509 7.297,10.625 C7.255,10.740 7.261,10.862 7.314,10.971 L7.377,11.100 L2.909,13.029 C2.798,12.847 2.693,12.669 2.595,12.496 L8.802,9.816 L7.544,10.365 ZM7.800,11.967 L3.437,13.850 C3.318,13.674 3.203,13.501 3.095,13.330 L7.530,11.415 L7.800,11.967 ZM8.223,12.834 L4.017,14.649 C3.887,14.479 3.762,14.311 3.643,14.142 L7.953,12.282 L8.223,12.834 ZM8.646,13.701 L4.649,15.426 C4.507,15.262 4.370,15.098 4.239,14.934 L8.376,13.149 L8.646,13.701 ZM9.068,14.568 L5.336,16.179 C5.182,16.021 5.035,15.862 4.892,15.702 L8.799,14.015 L9.068,14.568 ZM9.491,15.435 L6.085,16.906 C5.940,16.763 5.843,16.678 5.830,16.667 C5.752,16.594 5.680,16.519 5.604,16.444 L9.222,14.883 L9.491,15.435 ZM9.914,16.302 L6.762,17.662 C6.616,17.477 6.473,17.313 6.344,17.174 L9.645,15.749 L9.914,16.302 ZM10.337,17.168 L7.314,18.473 C7.207,18.289 7.093,18.114 6.977,17.951 L10.068,16.616 L10.337,17.168 ZM10.760,18.035 L7.717,19.349 C7.652,19.155 7.571,18.965 7.480,18.783 L10.491,17.483 L10.760,18.035 ZM11.186,18.908 L8.085,20.239 C7.990,20.039 7.908,19.850 7.839,19.678 L10.914,18.350 L11.186,18.908 ZM11.616,19.790 L8.537,21.104 C8.429,20.914 8.331,20.730 8.241,20.554 L11.340,19.224 L11.616,19.790 ZM12.024,20.627 L9.035,21.928 C8.921,21.752 8.814,21.579 8.713,21.410 L11.769,20.105 L12.024,20.627 ZM12.456,21.513 L9.589,22.739 C9.464,22.566 9.345,22.395 9.231,22.225 L12.178,20.941 L12.456,21.513 ZM10.776,25.972 L10.776,26.982 L10.776,36.317 L10.776,37.326 C10.776,37.341 10.763,37.354 10.748,37.354 L9.262,37.326 L9.290,25.944 L10.776,25.972 ZM13.030,22.689 L13.304,23.250 L10.863,24.288 C10.715,24.128 10.572,23.968 10.433,23.805 L13.030,22.689 ZM13.716,24.095 L11.590,25.022 C11.429,24.871 11.271,24.717 11.118,24.559 L13.457,23.565 L13.716,24.095 ZM12.967,27.331 L13.157,27.331 L14.307,27.331 C14.170,27.491 14.042,27.658 13.922,27.831 C13.881,27.888 13.843,27.947 13.804,28.005 C13.767,28.062 13.733,28.122 13.697,28.180 C13.079,29.194 12.715,30.378 12.715,31.649 C12.715,33.294 13.316,34.800 14.307,35.967 L11.127,35.967 L11.127,27.331 L12.776,27.331 L12.967,27.331 ZM14.108,28.180 C14.146,28.121 14.187,28.063 14.228,28.005 C14.270,27.946 14.315,27.888 14.359,27.831 C14.422,27.748 14.482,27.665 14.548,27.585 C14.604,27.518 14.665,27.457 14.724,27.393 C14.782,27.328 14.838,27.262 14.899,27.200 C14.972,27.127 15.050,27.058 15.127,26.987 C15.176,26.943 15.224,26.897 15.275,26.853 C15.325,26.810 15.374,26.765 15.425,26.724 C15.948,26.300 16.541,25.962 17.181,25.720 C17.241,25.697 17.301,25.675 17.362,25.654 C17.422,25.633 17.481,25.607 17.542,25.588 C18.140,25.402 18.775,25.302 19.433,25.302 C20.091,25.302 20.727,25.402 21.324,25.588 C21.386,25.607 21.444,25.633 21.505,25.654 C21.565,25.675 21.625,25.697 21.685,25.720 C22.325,25.962 22.918,26.300 23.441,26.724 C23.493,26.765 23.541,26.810 23.591,26.853 C23.642,26.897 23.690,26.943 23.739,26.987 C24.020,27.245 24.276,27.527 24.507,27.831 C24.551,27.888 24.596,27.946 24.638,28.005 C24.679,28.063 24.720,28.121 24.759,28.180 C24.852,28.322 24.942,28.467 25.024,28.616 C25.088,28.733 25.143,28.855 25.200,28.976 C25.226,29.033 25.257,29.087 25.281,29.145 C25.316,29.224 25.344,29.307 25.375,29.388 C25.403,29.462 25.431,29.536 25.457,29.610 C25.521,29.800 25.577,29.992 25.623,30.189 C25.735,30.658 25.800,31.145 25.800,31.649 C25.800,32.445 25.645,33.206 25.375,33.910 C25.321,34.049 25.263,34.186 25.200,34.321 C25.143,34.442 25.088,34.564 25.024,34.681 C23.943,36.654 21.843,37.996 19.433,37.996 C17.660,37.996 16.055,37.268 14.899,36.097 C14.838,36.036 14.782,35.969 14.724,35.905 C14.665,35.841 14.604,35.779 14.548,35.713 C13.624,34.611 13.066,33.194 13.066,31.649 C13.066,30.369 13.451,29.179 14.108,28.180 ZM19.433,25.682 C19.131,25.682 18.885,25.927 18.885,26.228 C18.885,26.529 19.131,26.774 19.433,26.774 C19.735,26.774 19.981,26.529 19.981,26.228 C19.981,25.927 19.735,25.682 19.433,25.682 ZM24.618,28.665 C24.544,28.539 24.426,28.448 24.285,28.410 C24.277,28.409 24.270,28.411 24.262,28.409 C24.128,28.378 23.988,28.396 23.869,28.465 C23.607,28.616 23.516,28.950 23.668,29.212 C23.769,29.387 23.954,29.485 24.144,29.485 C24.237,29.485 24.331,29.462 24.417,29.412 L24.417,29.412 C24.586,29.314 24.674,29.137 24.681,28.956 C24.684,28.857 24.671,28.757 24.618,28.665 ZM23.868,34.832 L23.868,34.832 C23.954,34.882 24.048,34.906 24.141,34.906 C24.331,34.906 24.516,34.807 24.618,34.632 C24.768,34.371 24.678,34.036 24.417,33.886 C24.290,33.812 24.142,33.793 24.001,33.831 C23.859,33.869 23.741,33.959 23.668,34.086 C23.516,34.347 23.607,34.681 23.868,34.832 ZM19.433,37.616 C19.735,37.616 19.981,37.371 19.981,37.070 C19.981,36.768 19.735,36.524 19.433,36.524 C19.131,36.524 18.885,36.768 18.885,37.070 C18.885,37.371 19.131,37.616 19.433,37.616 ZM19.433,36.170 C21.934,36.170 23.969,34.142 23.969,31.649 C23.969,30.257 23.334,29.010 22.338,28.180 C22.264,28.119 22.186,28.062 22.108,28.005 C22.025,27.945 21.939,27.886 21.852,27.831 C21.151,27.388 20.323,27.128 19.433,27.128 C18.543,27.128 17.715,27.388 17.014,27.831 C16.927,27.886 16.842,27.945 16.758,28.005 C16.681,28.062 16.602,28.119 16.528,28.180 C15.540,29.004 14.908,30.239 14.899,31.618 C14.899,31.628 14.897,31.638 14.897,31.649 C14.897,31.659 14.899,31.669 14.899,31.680 C14.916,34.158 16.943,36.170 19.433,36.170 ZM14.249,34.632 C14.318,34.752 14.427,34.832 14.548,34.873 C14.605,34.892 14.663,34.906 14.724,34.906 C14.724,34.906 14.725,34.906 14.725,34.906 C14.783,34.906 14.842,34.892 14.899,34.874 C14.933,34.862 14.966,34.851 14.998,34.832 C15.260,34.681 15.350,34.347 15.199,34.086 C15.132,33.971 15.024,33.890 14.899,33.847 C14.887,33.843 14.878,33.834 14.866,33.831 C14.819,33.818 14.771,33.822 14.724,33.822 C14.663,33.822 14.606,33.832 14.548,33.852 C14.515,33.864 14.480,33.868 14.449,33.886 C14.188,34.036 14.098,34.371 14.249,34.632 ZM14.449,29.412 C14.481,29.431 14.515,29.441 14.548,29.452 C14.605,29.472 14.664,29.485 14.723,29.485 C14.723,29.485 14.723,29.485 14.724,29.485 C14.784,29.485 14.842,29.472 14.899,29.452 C15.021,29.412 15.129,29.331 15.199,29.212 C15.350,28.950 15.260,28.616 14.998,28.466 C14.967,28.448 14.932,28.443 14.899,28.432 C14.842,28.412 14.784,28.401 14.724,28.401 C14.676,28.401 14.629,28.398 14.582,28.410 C14.569,28.414 14.560,28.423 14.548,28.427 C14.423,28.470 14.316,28.550 14.249,28.665 C14.098,28.927 14.188,29.261 14.449,29.412 ZM14.673,28.748 C14.689,28.744 14.707,28.742 14.724,28.742 L14.724,29.132 C14.690,29.132 14.656,29.127 14.625,29.109 C14.589,29.088 14.565,29.056 14.548,29.020 L14.548,28.854 C14.550,28.849 14.550,28.844 14.553,28.840 C14.579,28.795 14.622,28.763 14.673,28.748 ZM14.724,28.742 C14.758,28.742 14.792,28.751 14.823,28.768 L14.823,28.768 C14.859,28.789 14.882,28.821 14.899,28.857 L14.899,29.024 C14.897,29.028 14.897,29.033 14.895,29.037 C14.858,29.100 14.792,29.132 14.724,29.132 L14.724,28.742 C14.724,28.742 14.724,28.742 14.724,28.742 ZM14.724,34.163 C14.724,34.163 14.724,34.163 14.724,34.163 C14.741,34.163 14.758,34.165 14.775,34.169 C14.826,34.183 14.868,34.216 14.895,34.261 C14.897,34.265 14.897,34.270 14.899,34.274 L14.899,34.441 C14.882,34.477 14.859,34.509 14.823,34.530 C14.791,34.548 14.757,34.552 14.724,34.552 C14.656,34.552 14.589,34.521 14.553,34.458 C14.550,34.453 14.550,34.448 14.548,34.444 L14.548,34.277 C14.565,34.242 14.589,34.210 14.625,34.189 C14.655,34.172 14.689,34.163 14.724,34.163 ZM17.112,28.180 C17.205,28.118 17.302,28.060 17.400,28.005 C17.515,27.942 17.633,27.884 17.753,27.831 C18.268,27.605 18.836,27.477 19.433,27.477 C20.031,27.477 20.598,27.605 21.113,27.831 C21.234,27.884 21.352,27.942 21.466,28.005 C21.564,28.060 21.661,28.118 21.755,28.180 C22.877,28.930 23.618,30.204 23.618,31.649 C23.618,33.950 21.741,35.821 19.433,35.821 C17.126,35.821 15.248,33.950 15.248,31.649 C15.248,30.204 15.989,28.930 17.112,28.180 ZM19.433,33.473 C20.442,33.473 21.263,32.655 21.263,31.649 C21.263,30.643 20.442,29.825 19.433,29.825 C18.424,29.825 17.603,30.643 17.603,31.649 C17.603,32.655 18.424,33.473 19.433,33.473 ZM19.433,30.175 C20.249,30.175 20.912,30.836 20.912,31.649 C20.912,32.462 20.249,33.123 19.433,33.123 C18.618,33.123 17.954,32.462 17.954,31.649 C17.954,30.836 18.618,30.175 19.433,30.175 ZM19.433,36.873 C19.542,36.873 19.631,36.961 19.631,37.070 C19.631,37.178 19.542,37.267 19.433,37.267 C19.324,37.267 19.236,37.178 19.236,37.070 C19.236,36.961 19.324,36.873 19.433,36.873 ZM24.092,34.169 C24.142,34.155 24.196,34.163 24.241,34.189 C24.335,34.243 24.368,34.364 24.314,34.458 C24.259,34.551 24.138,34.583 24.044,34.530 C23.950,34.476 23.917,34.355 23.972,34.261 C23.998,34.216 24.041,34.183 24.092,34.169 ZM23.972,29.037 C23.917,28.944 23.950,28.822 24.044,28.768 C24.074,28.751 24.108,28.742 24.142,28.742 C24.159,28.742 24.177,28.744 24.194,28.748 C24.244,28.763 24.287,28.795 24.314,28.840 C24.368,28.934 24.336,29.055 24.241,29.109 C24.148,29.163 24.026,29.132 23.972,29.037 ZM19.433,26.425 C19.324,26.425 19.236,26.337 19.236,26.228 C19.236,26.120 19.324,26.031 19.433,26.031 C19.542,26.031 19.631,26.120 19.631,26.228 C19.631,26.337 19.542,26.425 19.433,26.425 ZM25.748,29.387 L27.521,31.225 C27.571,31.277 27.599,31.345 27.599,31.416 L27.599,34.281 C27.599,34.433 27.475,34.556 27.322,34.556 L25.475,34.556 C25.904,33.676 26.151,32.692 26.151,31.649 C26.151,30.855 26.004,30.095 25.748,29.387 ZM25.150,24.095 L25.409,23.565 L27.748,24.559 C27.595,24.717 27.437,24.871 27.276,25.023 L25.150,24.095 ZM25.836,22.689 L28.433,23.805 C28.295,23.968 28.151,24.128 28.003,24.288 L25.563,23.250 L25.836,22.689 ZM26.256,21.828 L29.061,23.027 C28.935,23.193 28.804,23.359 28.669,23.525 L25.990,22.374 L26.256,21.828 ZM26.689,20.941 L29.636,22.224 C29.521,22.395 29.403,22.566 29.277,22.739 L26.410,21.513 L26.689,20.941 ZM27.097,20.105 L30.153,21.410 C30.052,21.579 29.945,21.752 29.832,21.928 L26.842,20.627 L27.097,20.105 ZM27.527,19.224 L30.626,20.554 C30.535,20.730 30.437,20.914 30.330,21.104 L27.250,19.790 L27.527,19.224 ZM27.953,18.350 L31.027,19.678 C30.959,19.850 30.877,20.039 30.781,20.239 L27.680,18.908 L27.953,18.350 ZM28.376,17.483 L31.386,18.783 C31.296,18.965 31.215,19.155 31.149,19.349 L28.106,18.035 L28.376,17.483 ZM28.799,16.616 L31.890,17.951 C31.773,18.115 31.659,18.289 31.552,18.473 L28.529,17.168 L28.799,16.616 ZM29.221,15.749 L32.522,17.174 C32.393,17.314 32.251,17.477 32.105,17.662 L28.952,16.302 L29.221,15.749 ZM29.644,14.883 L33.262,16.444 C33.189,16.517 33.119,16.590 33.042,16.662 C33.028,16.674 32.929,16.760 32.782,16.906 L29.375,15.435 L29.644,14.883 ZM30.067,14.015 L33.975,15.702 C33.832,15.862 33.684,16.021 33.531,16.179 L29.798,14.568 L30.067,14.015 ZM30.490,13.149 L34.628,14.935 C34.497,15.099 34.360,15.263 34.218,15.426 L30.221,13.701 L30.490,13.149 ZM30.913,12.282 L35.224,14.143 C35.105,14.311 34.980,14.480 34.850,14.649 L30.644,12.834 L30.913,12.282 ZM31.336,11.415 L35.773,13.330 C35.664,13.501 35.550,13.674 35.430,13.850 L31.067,11.967 L31.336,11.415 ZM31.552,10.971 C31.605,10.862 31.611,10.740 31.569,10.625 C31.526,10.509 31.436,10.414 31.322,10.365 L30.067,9.818 L36.272,12.496 C36.174,12.669 36.069,12.848 35.959,13.029 L31.489,11.100 L31.552,10.971 ZM27.446,9.736 L27.521,9.769 L27.456,9.934 C27.455,9.868 27.450,9.802 27.446,9.736 ZM27.320,8.631 L28.274,9.043 C28.169,9.007 28.054,9.005 27.951,9.047 C27.838,9.094 27.751,9.182 27.707,9.295 L27.649,9.443 L27.427,9.346 C27.403,9.104 27.365,8.867 27.320,8.631 ZM27.143,12.373 C27.200,12.174 27.255,11.975 27.298,11.770 C27.322,11.654 27.336,11.533 27.355,11.414 C27.370,11.323 27.386,11.231 27.397,11.138 L27.523,10.818 L27.650,10.492 L27.874,9.920 L28.002,9.595 L28.065,9.433 C28.073,9.415 28.087,9.406 28.098,9.401 C28.109,9.397 28.131,9.391 28.156,9.402 L31.168,10.715 C31.194,10.727 31.204,10.746 31.208,10.757 C31.213,10.768 31.216,10.786 31.207,10.804 L31.136,10.948 L30.983,11.262 L30.714,11.815 L30.560,12.129 L30.291,12.681 L30.137,12.996 L29.868,13.549 L29.714,13.863 L29.691,13.912 L27.020,12.747 C27.025,12.734 27.031,12.720 27.035,12.706 C27.073,12.596 27.109,12.485 27.143,12.373 ZM25.764,15.306 L25.892,14.980 L25.974,14.771 C26.051,14.663 26.125,14.555 26.196,14.443 C26.260,14.345 26.321,14.244 26.380,14.142 C26.483,13.964 26.578,13.782 26.668,13.597 C26.718,13.492 26.774,13.390 26.820,13.282 C26.845,13.225 26.864,13.165 26.888,13.107 L29.523,14.257 L29.445,14.415 L29.292,14.730 L29.022,15.283 L28.869,15.597 L28.599,16.149 L28.446,16.464 L28.176,17.016 L28.125,17.122 L25.501,15.978 L25.540,15.879 L25.764,15.306 ZM25.060,16.052 L24.836,16.624 L24.387,16.429 C24.566,16.290 24.738,16.140 24.905,15.985 L25.060,16.052 ZM24.708,16.949 L24.479,17.534 L23.421,17.080 C23.642,16.953 23.856,16.818 24.063,16.671 L24.708,16.949 ZM24.351,17.861 L24.119,18.453 L22.216,17.641 C22.493,17.538 22.763,17.422 23.025,17.292 L24.351,17.861 ZM23.992,18.779 L23.789,19.298 L20.842,18.015 C21.142,17.962 21.436,17.896 21.723,17.810 L23.992,18.779 ZM23.661,19.624 L23.421,20.235 L20.519,18.994 C20.553,18.703 20.577,18.456 20.591,18.288 L23.661,19.624 ZM23.293,20.561 L23.075,21.120 L20.383,19.962 C20.418,19.755 20.448,19.551 20.474,19.356 L23.293,20.561 ZM22.947,21.446 L22.715,22.039 L20.176,20.958 C20.229,20.754 20.277,20.537 20.320,20.316 L22.947,21.446 ZM20.254,18.105 C20.204,18.760 20.057,20.096 19.802,21.000 L19.737,21.153 L19.754,21.160 C19.692,21.355 19.624,21.525 19.550,21.653 C19.045,20.938 18.683,18.558 18.617,18.095 C18.893,18.129 19.166,18.147 19.433,18.147 C19.710,18.147 19.984,18.132 20.254,18.105 ZM18.845,20.893 L16.152,22.039 L15.919,21.446 L18.671,20.262 C18.725,20.479 18.783,20.692 18.845,20.893 ZM18.590,19.916 L15.792,21.120 L15.573,20.561 L18.467,19.324 C18.504,19.514 18.545,19.713 18.590,19.916 ZM18.402,18.971 L15.445,20.235 L15.205,19.624 L18.289,18.282 C18.314,18.445 18.352,18.686 18.402,18.971 ZM18.052,18.003 L15.078,19.298 L14.875,18.779 L17.191,17.790 C17.480,17.876 17.767,17.947 18.052,18.003 ZM16.686,17.626 L14.747,18.453 L14.515,17.861 L15.844,17.291 C16.123,17.414 16.404,17.526 16.686,17.626 ZM15.417,17.092 L14.387,17.534 L14.158,16.949 L14.699,16.716 C14.936,16.850 15.176,16.975 15.417,17.092 ZM14.030,16.624 L13.868,16.209 C14.018,16.308 14.170,16.405 14.323,16.497 L14.030,16.624 ZM12.395,25.725 C12.216,25.582 12.043,25.433 11.872,25.281 L13.870,24.411 L14.145,24.975 L12.395,25.725 L12.395,25.725 ZM13.008,26.982 L12.598,26.019 L14.299,25.290 L14.967,26.660 C14.850,26.764 14.735,26.870 14.625,26.982 L13.008,26.982 ZM14.693,25.223 L16.652,24.369 L17.054,25.394 C16.405,25.641 15.804,25.981 15.269,26.404 L14.693,25.223 ZM16.279,22.365 L18.957,21.225 C19.025,21.412 19.099,21.578 19.176,21.716 L16.485,22.889 L16.279,22.365 ZM19.355,22.074 L19.032,22.878 L16.848,23.815 L16.612,23.215 L19.337,22.027 L19.355,22.074 ZM19.433,24.952 C18.730,24.952 18.052,25.062 17.415,25.262 L16.975,24.141 L19.439,23.085 L21.892,24.139 L21.452,25.262 C20.814,25.062 20.136,24.952 19.433,24.952 ZM22.587,22.365 L22.382,22.889 L19.872,21.794 C19.947,21.656 20.016,21.487 20.078,21.297 L22.587,22.365 ZM19.883,22.895 L19.661,22.799 L19.472,22.718 L19.486,22.684 L19.541,22.544 L19.635,22.306 L19.714,22.108 L19.752,22.125 L22.254,23.215 L22.020,23.813 L19.883,22.895 ZM21.812,25.395 L22.214,24.369 L24.173,25.223 L23.597,26.404 C23.062,25.981 22.461,25.641 21.812,25.395 ZM26.994,25.281 C26.824,25.433 26.650,25.582 26.471,25.725 L26.471,25.725 L24.722,24.974 L24.996,24.411 L26.994,25.281 ZM25.169,28.180 L25.281,28.180 L25.281,28.365 C25.246,28.302 25.206,28.243 25.169,28.180 ZM23.899,26.660 L24.568,25.288 L26.258,26.014 L25.348,27.831 L24.944,27.831 C24.643,27.400 24.291,27.009 23.899,26.660 ZM10.198,23.525 C10.062,23.359 9.932,23.193 9.806,23.027 L12.610,21.828 L12.876,22.374 L10.198,23.525 ZM13.678,16.776 L13.805,17.102 L14.034,17.686 L14.162,18.012 L14.394,18.604 L14.521,18.930 L14.725,19.451 L14.853,19.777 L15.092,20.386 L15.220,20.712 L15.439,21.271 L15.566,21.597 L15.798,22.189 L15.926,22.515 L16.132,23.042 L16.260,23.369 L16.494,23.966 L16.512,24.012 L14.525,24.878 L14.498,24.824 L14.222,24.257 L14.068,23.943 L13.811,23.414 L13.657,23.099 L13.383,22.537 L13.229,22.222 L12.963,21.677 L12.810,21.362 L12.530,20.789 L12.376,20.473 L12.123,19.954 L11.969,19.639 L11.693,19.072 L11.539,18.757 L11.266,18.198 L11.113,17.883 L10.909,17.467 L13.505,16.335 L13.678,16.776 ZM11.023,13.724 C11.102,13.817 11.182,13.909 11.265,14.000 C11.410,14.160 11.559,14.319 11.716,14.474 C11.806,14.563 11.898,14.650 11.990,14.737 C12.154,14.890 12.323,15.040 12.497,15.187 C12.596,15.271 12.697,15.355 12.800,15.437 C12.963,15.567 13.132,15.693 13.302,15.817 L13.326,15.879 L13.365,15.978 L10.742,17.122 L10.690,17.016 L10.421,16.464 L10.267,16.149 L9.998,15.597 L9.844,15.283 L9.575,14.730 L9.421,14.415 L9.344,14.257 L10.900,13.578 C10.940,13.627 10.982,13.675 11.023,13.724 ZM9.430,10.595 C9.458,10.796 9.501,11.000 9.563,11.206 C9.596,11.316 9.633,11.426 9.676,11.538 C9.746,11.725 9.829,11.912 9.924,12.100 C9.976,12.202 10.032,12.305 10.091,12.409 C10.191,12.585 10.301,12.760 10.421,12.935 C10.487,13.033 10.555,13.129 10.627,13.226 C10.637,13.239 10.647,13.252 10.657,13.266 L9.176,13.912 L9.152,13.863 L8.998,13.549 L8.729,12.996 L8.576,12.681 L8.306,12.129 L8.153,11.815 L7.883,11.262 L7.730,10.948 L7.659,10.804 C7.651,10.786 7.654,10.768 7.658,10.757 C7.662,10.746 7.672,10.727 7.698,10.715 L9.404,9.971 C9.400,10.028 9.394,10.084 9.394,10.138 C9.394,10.167 9.398,10.197 9.399,10.227 C9.402,10.349 9.413,10.472 9.430,10.595 ZM25.180,15.722 C25.185,15.717 25.190,15.710 25.196,15.706 L25.188,15.726 L25.180,15.722 ZM27.957,17.467 L27.753,17.883 L27.600,18.198 L27.327,18.757 L27.173,19.072 L26.897,19.639 L26.743,19.954 L26.490,20.473 L26.336,20.789 L26.057,21.362 L25.903,21.677 L25.637,22.222 L25.483,22.537 L25.209,23.099 L25.055,23.414 L24.798,23.943 L24.644,24.257 L24.369,24.822 L24.341,24.878 L22.354,24.012 L22.373,23.965 L22.606,23.369 L22.734,23.042 L22.941,22.515 L23.068,22.189 L23.300,21.597 L23.428,21.271 L23.647,20.712 L23.774,20.386 L24.013,19.777 L24.141,19.451 L24.345,18.930 L24.473,18.604 L24.704,18.012 L24.832,17.686 L25.061,17.102 L25.189,16.776 L25.362,16.335 L27.957,17.467 ZM26.987,7.439 L36.724,11.642 C36.637,11.817 36.543,11.999 36.441,12.188 L27.221,8.208 C27.156,7.946 27.078,7.690 26.987,7.439 ZM26.374,6.125 L37.130,10.768 C37.056,10.939 36.971,11.128 36.877,11.327 L26.815,6.983 C26.687,6.686 26.536,6.402 26.374,6.125 ZM24.845,4.237 C24.820,4.214 24.796,4.192 24.770,4.169 L37.537,9.715 L37.537,9.715 C37.488,9.862 37.398,10.116 37.265,10.445 L26.047,5.603 C25.700,5.102 25.294,4.647 24.845,4.237 Z"/>
</svg>