<?xml version="1.0" encoding="UTF-8"?>
<!DOCTYPE svg PUBLIC "-//W3C//DTD SVG 1.1//EN" "http://www.w3.org/Graphics/SVG/1.1/DTD/svg11.dtd">
<svg xmlns="http://www.w3.org/2000/svg">
<symbol id="arrow_l">
	<path fill="none" stroke="#939393" d="M17.5 34.492L.505 17.497 17.5.502"/>
</symbol>
<symbol id="arrow_r">
	<path fill="none" stroke="#939393" d="M1.5.502l16.995 16.995L1.5 34.492"/>
</symbol>
<symbol id="logo">
	<path fill="#E3A062" fill-rule="evenodd" d="M38.853 7.686l-.715 1.647a.24.24 0 0 1-.315.125L23.454 3.216a8.147 8.147 0 0 0-1.261-.59.235.235 0 0 1 .004-.175l.715-1.646a.241.241 0 0 1 .317-.125l1.245.538c.02.012.036.03.058.039l12.869 5.556c.022.009.045.008.067.014l1.26.543a.24.24 0 0 1 .125.316zm-1.277-1.193c-.012-.001-.024.004-.035-.001L24.671.936c-.011-.005-.016-.018-.025-.025-.013-.012-.029-.02-.035-.037a.114.114 0 0 1 .001-.087l.313-.721a.11.11 0 0 1 .063-.059.117.117 0 0 1 .086.001l12.869 5.556a.113.113 0 0 1 .06.149l-.313.72c-.02.045-.067.063-.114.06zM23.522 3.666a7.683 7.683 0 0 1 2.296 2.218c.189.282.354.581.505.887.078.157.154.314.22.476a7.572 7.572 0 0 1 .382 1.214 7.83 7.83 0 0 1 .163 1.12c.013.185.028.369.028.557 0 .041-.005.08-.006.121-.002.125-.011.249-.019.373-.006.09-.005.181-.014.27-.012.125-.036.246-.055.369-.017.118-.031.24-.054.357-.014.066-.031.131-.046.196a7.825 7.825 0 0 1-.209.744l-.014.039a6.965 6.965 0 0 1-.133.359c-.023.059-.043.12-.068.177-.046.108-.101.21-.152.315a7.568 7.568 0 0 1-.252.481l-.039.063a6.733 6.733 0 0 1-.184.301 6.941 6.941 0 0 1-.282.397l-.084.114c-.075.095-.149.191-.227.283a8.29 8.29 0 0 1-.441.478c-.091.09-.189.172-.285.258-.172.153-.35.299-.536.437-.108.081-.215.164-.328.24a7.63 7.63 0 0 1-.671.397 6.724 6.724 0 0 1-.419.201 7.735 7.735 0 0 1-.851.332 7.436 7.436 0 0 1-.551.145 11.195 11.195 0 0 1-.726.134c-.06.008-.119.02-.179.027a6.82 6.82 0 0 1-1.716-.008c-.06-.008-.12-.018-.18-.028-.059-.009-.119-.016-.179-.027a8.956 8.956 0 0 1-1.056-.261c-.296-.09-.592-.196-.888-.316a12.082 12.082 0 0 1-1.572-.771 14.424 14.424 0 0 1-.985-.625l-.059-.041c-.096-.068-.192-.135-.286-.206a19.603 19.603 0 0 1-.229-.173c-.021-.018-.044-.034-.066-.051a14.146 14.146 0 0 1-1.038-.903 11.893 11.893 0 0 1-.702-.747l-.124-.147a8.542 8.542 0 0 1-.245-.311l-.03-.038a7.374 7.374 0 0 1-.703-1.128 4.785 4.785 0 0 1-.353-.896 3.352 3.352 0 0 1-.135-.931c0-.02.003-.042.004-.062a2.337 2.337 0 0 1 .072-.495c.018-.076.039-.153.065-.232l.002-.006c.048-.147.109-.299.18-.454.128-.283.293-.578.49-.88.117-.181.246-.364.385-.547.267-.354.572-.709.908-1.061a14.685 14.685 0 0 1 3.786-2.862c.321-.167.647-.316.974-.449l.159-.062.011-.004.169-.065c.834-.303 1.675-.479 2.483-.479.872 0 1.708.152 2.49.42l.043.016.127.046a7.675 7.675 0 0 1 1.429.704zM11.589 9.663a.541.541 0 0 0-.265-.072c-.016 0-.031.004-.047.005a.562.562 0 0 0-.187.049.533.533 0 0 0-.296.361.549.549 0 0 0 .496.675c.011.001.022.003.034.003a.58.58 0 0 0 .334-.115.544.544 0 0 0 .207-.357c.003-.025.007-.049.007-.074a.542.542 0 0 0-.283-.475zm10.395-5.716c-.055-.024-.112-.041-.168-.063h-.001a6.705 6.705 0 0 0-2.382-.442 6.7 6.7 0 0 0-2.381.442h-.002c-.056.022-.113.039-.168.063a6.7 6.7 0 0 0-1.717 1.024 6.778 6.778 0 0 0-1.454 1.677 6.557 6.557 0 0 0-.457.866c-.064.147-.117.301-.17.454-.085.248-.16.501-.216.762-.03.135-.049.273-.07.411a6.678 6.678 0 0 0-.067.698c-.005.1-.016.198-.016.299 0 .029.004.057.005.086.003.22.015.438.038.652.014.12.035.238.055.357.035.208.079.411.132.612.03.114.058.229.094.341.063.195.134.388.214.575.046.108.101.211.153.315.091.186.19.365.298.541.061.1.121.202.188.299.119.174.246.342.382.504.079.094.165.183.249.273a6.933 6.933 0 0 0 .778.713c.19.149.388.285.593.413.122.077.244.153.371.222.252.133.516.248.785.35a6.735 6.735 0 0 0 1.058.311c.059.012.12.017.18.028.059.01.119.019.179.027.316.046.637.078.966.078.329 0 .65-.032.966-.078l.18-.027c.059-.011.12-.016.179-.028a6.545 6.545 0 0 0 1.058-.311c.27-.102.534-.217.785-.35.128-.069.249-.145.371-.222a6.604 6.604 0 0 0 1.371-1.126c.084-.09.17-.179.25-.273.135-.162.262-.33.381-.504.067-.097.127-.199.188-.299.108-.176.207-.355.298-.541.052-.104.107-.207.153-.315.08-.187.151-.38.214-.576.036-.111.064-.226.094-.34.053-.201.097-.404.132-.612.02-.119.041-.237.055-.357.023-.214.035-.432.038-.652.001-.029.005-.057.005-.086 0-.101-.011-.199-.016-.299a6.678 6.678 0 0 0-.067-.698c-.021-.138-.04-.276-.07-.411a6.73 6.73 0 0 0-.216-.763c-.053-.152-.106-.306-.17-.453a6.434 6.434 0 0 0-.457-.866 6.74 6.74 0 0 0-1.454-1.677 6.7 6.7 0 0 0-1.717-1.024zm2.576 2.444c.212.286.399.59.56.911a5.83 5.83 0 0 1 .471 1.252c.036.14.071.28.097.423.043.231.072.467.089.706.009.13.018.259.02.39 0 .022.003.043.003.065 0 .2-.012.397-.03.592-.011.122-.032.24-.05.36a6.235 6.235 0 0 1-.124.614c-.03.114-.056.23-.091.342a6.294 6.294 0 0 1-.214.576c-.046.108-.101.211-.153.315a7.234 7.234 0 0 1-.494.837 6.503 6.503 0 0 1-.64.773c-.156.16-.318.313-.49.457-.103.085-.211.164-.319.243-.198.145-.402.28-.617.403-.13.073-.265.142-.401.206a6.356 6.356 0 0 1-.829.335c-.18.056-.363.103-.549.143l-.003.001-.178.036c-.059.011-.12.017-.179.027a6.42 6.42 0 0 1-1.006.087c-.343 0-.677-.035-1.005-.087-.06-.01-.121-.016-.18-.027-.06-.012-.119-.023-.178-.036l-.002-.001a6.337 6.337 0 0 1-.55-.143 6.287 6.287 0 0 1-.828-.335 6.331 6.331 0 0 1-.402-.206 6.668 6.668 0 0 1-.617-.403c-.108-.079-.216-.158-.319-.243a6.607 6.607 0 0 1-1.13-1.23 7.234 7.234 0 0 1-.494-.837c-.052-.104-.107-.207-.153-.315a6.294 6.294 0 0 1-.214-.576c-.035-.112-.061-.228-.091-.342a6.235 6.235 0 0 1-.124-.614c-.018-.12-.038-.238-.05-.36a6.428 6.428 0 0 1-.03-.592c0-.022.003-.043.003-.065.002-.131.011-.26.02-.39.017-.239.046-.475.089-.706.026-.143.061-.283.097-.423.069-.266.152-.526.253-.778a5.99 5.99 0 0 1 .218-.474 6.408 6.408 0 0 1 1.056-1.506 6.391 6.391 0 0 1 1.952-1.408c.056-.026.111-.056.168-.08.055-.024.113-.044.169-.066a6.336 6.336 0 0 1 2.342-.451c.828 0 1.616.163 2.342.451.057.022.114.042.17.066.057.024.111.054.167.08a6.391 6.391 0 0 1 2.448 2.003zm-.601 3.558a4.528 4.528 0 0 0-.08-.704 4.476 4.476 0 0 0-.45-1.244 4.448 4.448 0 0 0-.339-.526 4.575 4.575 0 0 0-1.193-1.128c-.054-.035-.11-.067-.166-.1-.055-.033-.109-.067-.165-.097a4.514 4.514 0 0 0-2.133-.533c-.771 0-1.496.193-2.132.533-.057.03-.111.064-.166.097-.056.033-.112.065-.166.1a4.59 4.59 0 0 0-1.193 1.128 4.579 4.579 0 0 0-.339.526 4.476 4.476 0 0 0-.45 1.244c-.046.229-.07.464-.08.704-.003.063-.01.125-.01.189 0 .065.007.127.01.192.009.216.031.429.07.637.022.118.05.233.081.347.054.2.117.395.197.583a4.812 4.812 0 0 0 .694 1.131c.141.169.296.324.46.47a4.516 4.516 0 0 0 1.443.873c.061.022.121.046.183.067.06.019.122.035.183.052.387.108.794.17 1.215.17.422 0 .828-.062 1.216-.171.061-.016.122-.032.182-.051.062-.021.122-.045.184-.067a4.527 4.527 0 0 0 1.443-.873c.163-.146.319-.301.46-.47.077-.092.148-.189.217-.287.12-.168.228-.345.324-.529a3.969 3.969 0 0 0 .349-.898c.031-.114.059-.229.081-.347.039-.208.061-.421.07-.637.003-.065.01-.127.01-.192 0-.064-.007-.126-.01-.189zm-.403.875a3.73 3.73 0 0 1-.074.349 4.1 4.1 0 0 1-.193.586 4.144 4.144 0 0 1-.484.84 4.318 4.318 0 0 1-.7.747 4.206 4.206 0 0 1-1.048.637c-.06.025-.122.045-.184.067-.061.023-.121.048-.183.067a4.178 4.178 0 0 1-2.513 0c-.063-.019-.123-.044-.184-.067-.061-.022-.124-.042-.184-.067a4.206 4.206 0 0 1-1.047-.637 4.24 4.24 0 0 1-.701-.747 4.262 4.262 0 0 1-.484-.84 4.23 4.23 0 0 1-.267-.935 4.257 4.257 0 0 1-.06-.643l-.002-.043c0-.116.008-.231.018-.344a4.12 4.12 0 0 1 .271-1.167 4.133 4.133 0 0 1 .974-1.47 4.263 4.263 0 0 1 .831-.627 4.166 4.166 0 0 1 5.013.627 4.203 4.203 0 0 1 .975 1.47 4.165 4.165 0 0 1 .27 1.167c.01.113.018.228.018.344l-.002.043a4.132 4.132 0 0 1-.06.643zm-4.123 2.567a.548.548 0 0 0 .548-.547.548.548 0 0 0-1.096 0c0 .302.246.547.548.547zm0-6.64a.548.548 0 0 0-.548.546.548.548 0 0 0 1.096 0 .548.548 0 0 0-.548-.546zm0 1.839c-.856 0-1.553.694-1.553 1.548a1.552 1.552 0 0 0 3.106 0c0-.854-.697-1.548-1.553-1.548zm0 2.746a1.201 1.201 0 0 1-1.202-1.198c0-.661.539-1.198 1.202-1.198.663 0 1.202.537 1.202 1.198 0 .661-.539 1.198-1.202 1.198zm0-3.842a.197.197 0 1 1 0-.394c.109 0 .198.089.198.197a.198.198 0 0 1-.198.197zm0 5.153c.109 0 .198.089.198.197a.198.198 0 0 1-.395 0c0-.108.088-.197.197-.197zm-8.075-2.318c-.011.001-.022.006-.034.006a.197.197 0 0 1-.197-.197c0-.07.038-.127.093-.163a.195.195 0 0 1 .104-.034c.038 0 .071.013.101.032a.192.192 0 0 1 .096.165.168.168 0 0 1-.011.054.193.193 0 0 1-.152.137zM1.043 9.458a.242.242 0 0 1-.315-.125L.013 7.686a.241.241 0 0 1 .125-.316l1.261-.543c.022-.007.045-.005.066-.014l12.869-5.556c.022-.009.038-.027.058-.039L15.637.68a.249.249 0 0 1 .185-.003.243.243 0 0 1 .132.128l.715 1.646a.236.236 0 0 1-.027.23L1.043 9.458zM14.195.936L1.326 6.492c-.012.005-.024-.001-.036.001-.047.003-.094-.015-.114-.06l-.312-.72a.113.113 0 0 1 .059-.149L13.792.008a.12.12 0 0 1 .045-.009.112.112 0 0 1 .104.067l.313.721a.11.11 0 0 1 .001.087c-.006.017-.023.026-.036.038-.009.007-.013.019-.024.024zm-.684 3.521a15.137 15.137 0 0 0-1.925 1.678l-9.984 4.31c-.134-.33-.224-.583-.272-.73l12.299-5.344-.118.086zm-3.232 3.291L1.99 11.327c-.094-.2-.18-.388-.254-.559l9.285-4.008c-.278.329-.527.66-.742.988zm-.684 1.345l-7.169 3.094a17.18 17.18 0 0 1-.283-.546l7.824-3.377a5.528 5.528 0 0 0-.372.829zm-2.051 1.272a.457.457 0 0 0-.247.26.438.438 0 0 0 .017.346l.063.129-4.468 1.929c-.111-.182-.216-.36-.314-.533l6.207-2.68-1.258.549zm.256 1.602L3.437 13.85a20.039 20.039 0 0 1-.342-.52l4.435-1.915.27.552zm.423.867l-4.206 1.815c-.13-.17-.255-.338-.374-.507l4.31-1.86.27.552zm.423.867l-3.997 1.725a16.18 16.18 0 0 1-.41-.492l4.137-1.785.27.552zm.422.867l-3.732 1.611a15.037 15.037 0 0 1-.444-.477l3.907-1.687.269.553zm.423.867l-3.406 1.471a5.659 5.659 0 0 0-.255-.239c-.078-.073-.15-.148-.226-.223l3.618-1.561.269.552zm.423.867l-3.152 1.36a8.069 8.069 0 0 0-.418-.488l3.301-1.425.269.553zm.423.866l-3.023 1.305a6.792 6.792 0 0 0-.337-.522l3.091-1.335.269.552zm.423.867l-3.043 1.314a4.391 4.391 0 0 0-.237-.566l3.011-1.3.269.552zm.426.873l-3.101 1.331a9.936 9.936 0 0 1-.246-.561l3.075-1.328.272.558zm.43.882l-3.079 1.314c-.108-.19-.206-.374-.296-.55l3.099-1.33.276.566zm.408.837l-2.989 1.301a16.88 16.88 0 0 1-.322-.518l3.056-1.305.255.522zm.432.886l-2.867 1.226a17.887 17.887 0 0 1-.358-.514l2.947-1.284.278.572zm-1.68 4.459V37.326a.029.029 0 0 1-.028.028l-1.486-.028.028-11.382 1.486.028zm2.254-3.283l.274.561-2.441 1.038c-.148-.16-.291-.32-.43-.483l2.597-1.116zm.686 1.406l-2.126.927a13.75 13.75 0 0 1-.472-.463l2.339-.994.259.53zm-.749 3.236H14.307c-.137.16-.265.327-.385.5-.041.057-.079.116-.118.174-.037.057-.071.117-.107.175a6.642 6.642 0 0 0-.982 3.469 6.65 6.65 0 0 0 1.592 4.318h-3.18v-8.636h1.84zm1.141.849c.038-.059.079-.117.12-.175.042-.059.087-.117.131-.174.063-.083.123-.166.189-.246.056-.067.117-.128.176-.192.058-.065.114-.131.175-.193.073-.073.151-.142.228-.213.049-.044.097-.09.148-.134.05-.043.099-.088.15-.129a6.352 6.352 0 0 1 1.937-1.07c.06-.021.119-.047.18-.066a6.356 6.356 0 0 1 1.891-.286c.658 0 1.294.1 1.891.286.062.019.12.045.181.066l.18.066c.64.242 1.233.58 1.756 1.004.052.041.1.086.15.129.051.044.099.09.148.134.281.258.537.54.768.844.044.057.089.115.131.174.041.058.082.116.121.175.093.142.183.287.265.436.064.117.119.239.176.36.026.057.057.111.081.169.035.079.063.162.094.243a6.292 6.292 0 0 1 .248.801c.112.469.177.956.177 1.46a6.3 6.3 0 0 1-.6 2.672c-.057.121-.112.243-.176.36a6.374 6.374 0 0 1-5.591 3.315 6.354 6.354 0 0 1-4.534-1.899c-.061-.061-.117-.128-.175-.192-.059-.064-.12-.126-.176-.192a6.306 6.306 0 0 1-.44-7.533zm5.325-2.498a.548.548 0 0 0-.548.546.548.548 0 0 0 1.096 0 .548.548 0 0 0-.548-.546zm5.185 2.983a.55.55 0 0 0-.333-.255c-.008-.001-.015.001-.023-.001a.546.546 0 1 0-.118 1.076.54.54 0 0 0 .273-.073.543.543 0 0 0 .264-.456.536.536 0 0 0-.063-.291zm-.75 6.167a.552.552 0 0 0 .75-.2.547.547 0 1 0-.75.2zm-4.435 2.784a.547.547 0 1 0 0 0zm0-1.446c2.501 0 4.536-2.028 4.536-4.521a4.508 4.508 0 0 0-1.631-3.469c-.074-.061-.152-.118-.23-.175a4.512 4.512 0 0 0-5.35 0c-.077.057-.156.114-.23.175a4.508 4.508 0 0 0-1.629 3.438l-.002.031.002.031c.017 2.478 2.044 4.49 4.534 4.49zm-5.184-1.538c.069.12.178.2.299.241a.554.554 0 0 0 .176.033h.001a.587.587 0 0 0 .174-.032c.034-.012.067-.023.099-.042a.546.546 0 0 0 .201-.746.548.548 0 0 0-.3-.239c-.012-.004-.021-.013-.033-.016-.047-.013-.095-.009-.142-.009a.53.53 0 0 0-.176.03c-.033.012-.068.016-.099.034a.546.546 0 0 0-.2.746zm.2-5.22c.032.019.066.029.099.04.057.02.116.033.175.033h.001c.06 0 .118-.013.175-.033a.54.54 0 0 0 .099-.986c-.031-.018-.066-.023-.099-.034a.525.525 0 0 0-.175-.031c-.048 0-.095-.003-.142.009-.013.004-.022.013-.034.017a.544.544 0 0 0-.299.238.547.547 0 0 0 .2.747zm.224-.664a.216.216 0 0 1 .051-.006v.39a.192.192 0 0 1-.099-.023.195.195 0 0 1-.077-.089v-.166c.002-.005.002-.01.005-.014a.203.203 0 0 1 .12-.092zm.051-.006c.034 0 .068.009.099.026a.193.193 0 0 1 .076.089v.167l-.004.013a.195.195 0 0 1-.171.095v-.39zm0 5.421c.017 0 .034.002.051.006a.202.202 0 0 1 .12.092l.004.013v.167a.193.193 0 0 1-.076.089.196.196 0 0 1-.099.022.193.193 0 0 1-.171-.094c-.003-.005-.003-.01-.005-.014v-.167a.198.198 0 0 1 .077-.088.2.2 0 0 1 .099-.026zm2.388-5.983a4.414 4.414 0 0 1 .641-.349 4.171 4.171 0 0 1 4.002.349 4.17 4.17 0 0 1 1.863 3.469 4.183 4.183 0 0 1-4.185 4.172c-2.307 0-4.185-1.871-4.185-4.172 0-1.445.741-2.719 1.864-3.469zm2.321 5.293c1.009 0 1.83-.818 1.83-1.824a1.829 1.829 0 0 0-1.83-1.824c-1.009 0-1.83.818-1.83 1.824 0 1.006.821 1.824 1.83 1.824zm0-3.298c.816 0 1.479.661 1.479 1.474s-.663 1.474-1.479 1.474a1.478 1.478 0 0 1-1.479-1.474c0-.813.664-1.474 1.479-1.474zm0 6.698c.109 0 .198.088.198.197a.197.197 0 1 1-.198-.197zm4.659-2.704a.198.198 0 0 1 .222.289.2.2 0 0 1-.27.072.196.196 0 0 1 .048-.361zm-.12-5.132a.197.197 0 0 1 .222-.289.197.197 0 0 1 .047.361.197.197 0 0 1-.269-.072zm-4.539-2.612a.197.197 0 1 1 0-.394c.109 0 .198.089.198.197a.198.198 0 0 1-.198.197zm6.315 2.962l1.773 1.838c.05.052.078.12.078.191v2.865a.276.276 0 0 1-.277.275h-1.847c.429-.88.676-1.864.676-2.907 0-.794-.147-1.554-.403-2.262zm-.598-5.292l.259-.53 2.339.994c-.153.158-.311.312-.472.464l-2.126-.928zm.686-1.406l2.597 1.116a14.73 14.73 0 0 1-.43.483l-2.44-1.038.273-.561zm.42-.861l2.805 1.199c-.126.166-.257.332-.392.498l-2.679-1.151.266-.546zm.433-.887l2.947 1.283a16.67 16.67 0 0 1-.359.515l-2.867-1.226.279-.572zm.408-.836l3.056 1.305c-.101.169-.208.342-.321.518l-2.99-1.301.255-.522zm.43-.881l3.099 1.33c-.091.176-.189.36-.296.55l-3.08-1.314.277-.566zm.426-.874l3.074 1.328c-.068.172-.15.361-.246.561l-3.101-1.331.273-.558zm.423-.867l3.01 1.3c-.09.182-.171.372-.237.566l-3.043-1.314.27-.552zm.423-.867l3.091 1.335a6.694 6.694 0 0 0-.338.522l-3.023-1.305.27-.552zm.422-.867l3.301 1.425a8.4 8.4 0 0 0-.417.488l-3.153-1.36.269-.553zm.423-.866l3.618 1.561c-.073.073-.143.146-.22.218a5.333 5.333 0 0 0-.26.244l-3.407-1.471.269-.552zm.423-.868l3.908 1.687c-.143.16-.291.319-.444.477l-3.733-1.611.269-.553zm.423-.866l4.138 1.786c-.131.164-.268.328-.41.491l-3.997-1.725.269-.552zm.423-.867l4.311 1.861c-.119.168-.244.337-.374.506l-4.206-1.815.269-.552zm.423-.867l4.437 1.915c-.109.171-.223.344-.343.52l-4.363-1.883.269-.552zm.216-.444a.438.438 0 0 0 .017-.346.457.457 0 0 0-.247-.26l-1.255-.547 6.205 2.678c-.098.173-.203.352-.313.533l-4.47-1.929.063-.129zm-4.106-1.235l.075.033-.065.165c-.001-.066-.006-.132-.01-.198zm-.126-1.105l.954.412a.44.44 0 0 0-.567.252l-.058.148-.222-.097a8.049 8.049 0 0 0-.107-.715zm-.177 3.742c.057-.199.112-.398.155-.603.024-.116.038-.237.057-.356.015-.091.031-.183.042-.276l.126-.32.127-.326.224-.572.128-.325.063-.162a.063.063 0 0 1 .033-.032.076.076 0 0 1 .058.001l3.012 1.313a.074.074 0 0 1 .04.042.055.055 0 0 1-.001.047l-.071.144-.153.314-.269.553-.154.314-.269.552-.154.315-.269.553-.154.314-.023.049-2.671-1.165c.005-.013.011-.027.015-.041a9.24 9.24 0 0 0 .108-.333zm-1.379 2.933l.128-.326.082-.209a7.253 7.253 0 0 0 .406-.629c.103-.178.198-.36.288-.545.05-.105.106-.207.152-.315.025-.057.044-.117.068-.175l2.635 1.15-.078.158-.153.315-.27.553-.153.314-.27.552-.153.315-.27.552-.051.106-2.624-1.144.039-.099.224-.573zm-.704.746l-.224.572-.449-.195c.179-.139.351-.289.518-.444l.155.067zm-.352.897l-.229.585-1.058-.454c.221-.127.435-.262.642-.409l.645.278zm-.357.912l-.232.592-1.903-.812c.277-.103.547-.219.809-.349l1.326.569zm-.359.918l-.203.519-2.947-1.283c.3-.053.594-.119.881-.205l2.269.969zm-.331.845l-.24.611-2.902-1.241c.034-.291.058-.538.072-.706l3.07 1.336zm-.368.937l-.218.559-2.692-1.158c.035-.207.065-.411.091-.606l2.819 1.205zm-.346.885l-.232.593-2.539-1.081c.053-.204.101-.421.144-.642l2.627 1.13zm-2.693-3.341c-.05.655-.197 1.991-.452 2.895l-.065.153.017.007c-.062.195-.13.365-.204.493-.505-.715-.867-3.095-.933-3.558.276.034.549.052.816.052.277 0 .551-.015.821-.042zm-1.409 2.788l-2.693 1.146-.233-.593 2.752-1.184c.054.217.112.43.174.631zm-.255-.977l-2.798 1.204-.219-.559 2.894-1.237c.037.19.078.389.123.592zm-.188-.945l-2.957 1.264-.24-.611 3.084-1.342c.025.163.063.404.113.689zm-.35-.968l-2.974 1.295-.203-.519 2.316-.989c.289.086.576.157.861.213zm-1.366-.377l-1.939.827-.232-.592 1.329-.57c.279.123.56.235.842.335zm-1.269-.534l-1.03.442-.229-.585.541-.233c.237.134.477.259.718.376zm-1.387-.468l-.162-.415c.15.099.302.196.455.288l-.293.127zm-1.635 9.101a13.034 13.034 0 0 1-.523-.444l1.998-.87.275.564-1.75.75zm.613 1.257l-.41-.963 1.701-.729.668 1.37c-.117.104-.232.21-.342.322h-1.617zm1.685-1.759l1.959-.854.402 1.025a6.738 6.738 0 0 0-1.785 1.01l-.576-1.181zm1.586-2.858l2.678-1.14c.068.187.142.353.219.491l-2.691 1.173-.206-.524zm3.076-.291l-.323.804-2.184.937-.236-.6 2.725-1.188.018.047zm.078 2.878c-.703 0-1.381.11-2.018.31l-.44-1.121 2.464-1.056 2.453 1.054-.44 1.123a6.74 6.74 0 0 0-2.019-.31zm3.154-2.587l-.205.524-2.51-1.095c.075-.138.144-.307.206-.497l2.509 1.068zm-2.704.53l-.222-.096-.189-.081.014-.034.055-.14.094-.238.079-.198.038.017 2.502 1.09-.234.598-2.137-.918zm1.929 2.5l.402-1.026 1.959.854-.576 1.181a6.707 6.707 0 0 0-1.785-1.009zm5.182-.114c-.17.152-.344.301-.523.444l-1.749-.751.274-.563 1.998.87zm-1.825 2.899h.112v.185c-.035-.063-.075-.122-.112-.185zm-1.27-1.52l.669-1.372 1.69.726-.91 1.817h-.404a6.726 6.726 0 0 0-1.045-1.171zm-13.701-3.135a17.04 17.04 0 0 1-.392-.498l2.804-1.199.266.546-2.678 1.151zm3.48-6.749l.127.326.229.584.128.326.232.592.127.326.204.521.128.326.239.609.128.326.219.559.127.326.232.592.128.326.206.527.128.327.234.597.018.046-1.987.866-.027-.054-.276-.567-.154-.314-.257-.529-.154-.315-.274-.562-.154-.315-.266-.545-.153-.315-.28-.573-.154-.316-.253-.519-.154-.315-.276-.567-.154-.315-.273-.559-.153-.315-.204-.416 2.596-1.132.173.441zm-2.655-3.052a11.756 11.756 0 0 0 .693.75 13.77 13.77 0 0 0 1.586 1.343l.024.062.039.099-2.623 1.144-.052-.106-.269-.552-.154-.315-.269-.552-.154-.314-.269-.553-.154-.315-.077-.158 1.556-.679.123.146zM9.43 10.595a4.058 4.058 0 0 0 .246.943 5.601 5.601 0 0 0 .415.871c.1.176.21.351.33.526.066.098.134.194.206.291l.03.04-1.481.646-.024-.049-.154-.314-.269-.553-.153-.315-.27-.552-.153-.314-.27-.553-.153-.314-.071-.144a.064.064 0 0 1-.001-.047.074.074 0 0 1 .04-.042l1.706-.744c-.004.057-.01.113-.01.167 0 .029.004.059.005.089.003.122.014.245.031.368zm15.75 5.127c.005-.005.01-.012.016-.016l-.008.02-.008-.004zm2.777 1.745l-.204.416-.153.315-.273.559-.154.315-.276.567-.154.315-.253.519-.154.316-.279.573-.154.315-.266.545-.154.315-.274.562-.154.315-.257.529-.154.314-.275.565-.028.056-1.987-.866.019-.047.233-.596.128-.327.207-.527.127-.326.232-.592.128-.326.219-.559.127-.326.239-.609.128-.326.204-.521.128-.326.231-.592.128-.326.229-.584.128-.326.173-.441 2.595 1.132zm-.97-10.028l9.737 4.203c-.087.175-.181.357-.283.546l-9.22-3.98a7.676 7.676 0 0 0-.234-.769zm-.613-1.314l10.756 4.643c-.074.171-.159.36-.253.559L26.815 6.983a7.884 7.884 0 0 0-.441-.858zm-1.529-1.888a5.086 5.086 0 0 0-.075-.068l12.767 5.546c-.049.147-.139.401-.272.73L26.047 5.603a8.1 8.1 0 0 0-1.202-1.366z"/>
</symbol>
</svg>